<svg width="393" height="141" viewBox="0 0 393 141" fill="none" xmlns="http://www.w3.org/2000/svg">
<path d="M0.0669935 2.60599C-0.330109 1.14996 6.35444 0.421939 20.1207 0.421939C35.3428 0.421939 43.1526 1.67943 43.5497 4.1944L53.2787 87.7845L74.3251 3.20166C74.987 1.21615 80.1493 0.22339 89.8121 0.22339C99.4748 0.22339 104.637 1.14996 105.299 3.00311L125.948 88.1816L137.464 3.79732C137.729 2.34127 140.773 1.34851 146.598 0.819036C152.422 0.289572 157.121 0.0248413 160.695 0.0248413C174.593 0.0248413 181.344 0.951413 180.947 2.80456L156.922 134.444C156.393 136.429 152.62 137.886 145.605 138.812C138.589 139.739 132.898 140.202 128.53 140.202C112.116 140.202 103.512 138.349 102.718 134.643L89.2164 80.041L74.5236 134.444C73.9942 136.827 69.3613 138.547 60.6251 139.606C56.1246 140.003 51.624 140.202 47.1236 140.202L34.4163 139.606C25.6801 138.68 21.0472 137.025 20.5178 134.643L0.0669935 2.60599ZM371.477 139.805C359.696 139.805 353.806 138.481 353.806 135.834L349.636 56.2148L325.413 136.827C324.884 138.415 320.383 139.209 311.912 139.209C303.441 139.209 299.072 138.481 298.807 137.025L273.79 55.4206L271.01 134.643C270.878 136.628 268.362 138.018 263.465 138.812C258.568 139.474 254.464 139.805 251.155 139.805C247.978 139.805 244.868 139.606 241.823 139.209C235.469 138.283 232.359 136.628 232.491 134.245L237.058 5.18716C237.058 2.01035 245.132 0.421939 261.281 0.421939C266.046 0.421939 271.871 0.81904 278.754 1.61324C285.636 2.27508 289.475 3.66494 290.27 5.78283L312.507 68.3264L331.965 5.58428C333.157 2.14272 342.29 0.421939 359.365 0.421939C364.262 0.421939 370.087 0.81904 376.838 1.61324C383.72 2.27508 387.162 3.53258 387.162 5.38571L392.92 135.635C392.92 137.091 390.339 138.15 385.177 138.812C380.015 139.474 375.448 139.805 371.477 139.805Z" fill="#72E2AE"/>
</svg>
